<?xml version="1.0" encoding="UTF-8" standalone="no"?>
<!DOCTYPE svg PUBLIC "-//W3C//DTD SVG 1.1//EN" "http://www.w3.org/Graphics/SVG/1.1/DTD/svg11.dtd">
<svg width="100%" height="100%" viewBox="0 0 497 493" version="1.1" xmlns="http://www.w3.org/2000/svg" xmlns:xlink="http://www.w3.org/1999/xlink" xml:space="preserve" xmlns:serif="http://www.serif.com/" style="fill-rule:evenodd;clip-rule:evenodd;stroke-linejoin:round;stroke-miterlimit:2;">
    <g transform="matrix(1,0,0,1,-136.892,-16.9291)">
        <g>
            <g id="path3" transform="matrix(0.999894,-0.0145578,0.0145578,0.999894,133.521,20.7879)">
                <path d="M358.75,452C358.08,452 357.75,451.25 357.75,449.75C357.75,447.25 356.33,442.46 353.5,435.38C350.67,428.29 348.67,424.75 347.5,424.75C346.67,424.75 346.13,425 345.88,425.5C345.63,426 345,426.25 344,426.25C342.67,426.25 341,425.33 339,423.5C337,421.67 336,420.17 336,419C336,418.5 336.83,416.83 338.5,414C340.17,411.17 341.25,409.75 341.75,409.75C345.92,409.75 349.63,412.21 352.88,417.13C356.13,422.04 358.42,428.5 359.75,436.5C359.92,437.33 360.08,437.75 360.25,437.75L360.25,438L361,436.5C361.67,431.67 363.33,424.5 366,415C368.67,408.33 371.67,405 375,405C376.83,405 378.54,406.08 380.13,408.25C381.71,410.42 382.5,412.08 382.5,413.25C382.5,414.25 382.21,415.67 381.63,417.5C381.04,419.33 380.25,420.25 379.25,420.25C378.92,420.25 378.13,419.46 376.88,417.88C375.63,416.29 374.33,415.5 373,415.5C370,415.5 367.25,422.5 364.75,436.5C363.58,442.67 362.33,447 361,449.5C360.17,451.17 359.42,452 358.75,452Z" style="fill:rgb(255,176,0);"/>
            </g>
            <g id="path4" transform="matrix(0.999894,-0.0145578,0.0145578,0.999894,133.521,20.7879)">
                <path d="M196.25,442.75L196,442.5C196,442.17 197.17,440.67 199.5,438C211.17,425.33 217,416.92 217,412.75C216.83,408.75 214.92,406.75 211.25,406.75C209.25,406.75 207.54,407.21 206.13,408.13C204.71,409.04 203.83,409.58 203.5,409.75L202.75,409.25L203.25,406C205.08,397.33 209.42,393 216.25,393C221.92,393 224.75,396.58 224.75,403.75C224.75,408.92 222.54,414.96 218.13,421.88C213.71,428.79 208,434.75 201,439.75C198.33,441.75 196.75,442.75 196.25,442.75Z" style="fill:rgb(255,176,0);"/>
            </g>
            <g id="path5" transform="matrix(0.999894,-0.0145578,0.0145578,0.999894,133.521,20.7879)">
                <path d="M113,182.25L112.75,182C112.75,181.67 113.92,180.17 116.25,177.5C127.92,165 133.75,156.58 133.75,152.25C133.58,148.25 131.67,146.25 128,146.25C126,146.25 124.29,146.75 122.88,147.75C121.46,148.75 120.58,149.25 120.25,149.25L119.5,148.75L120,145.5C121.83,136.83 126.17,132.5 133,132.5C138.67,132.5 141.5,136.08 141.5,143.25C141.5,148.58 139.29,154.67 134.88,161.5C130.46,168.33 124.75,174.25 117.75,179.25C115.08,181.25 113.5,182.25 113,182.25Z" style="fill:rgb(255,176,0);"/>
            </g>
            <g id="path6" transform="matrix(0.999894,-0.0145578,0.0145578,0.999894,133.521,20.7879)">
                <path d="M19.25,165.5L19.25,165.25C19.25,164.92 20.42,163.42 22.75,160.75C34.25,148.25 40,139.83 40,135.5C40,131.5 38.17,129.5 34.5,129.5C32.33,129.5 30.54,130 29.13,131C27.71,132 26.83,132.58 26.5,132.75C26.33,132.42 26.08,132.25 25.75,132.25L26.5,129C28.33,120.33 32.67,116 39.5,116C45.17,116 48,119.5 48,126.5C48,131.83 45.79,137.92 41.38,144.75C36.96,151.58 31.25,157.5 24.25,162.5C21.42,164.5 19.75,165.5 19.25,165.5Z" style="fill:rgb(255,176,0);"/>
            </g>
            <g id="path8" transform="matrix(0.999894,-0.0145578,0.0145578,0.999894,133.521,20.7879)">
                <path d="M377.5,60.5C378.33,62.67 380.17,67.25 383,74.25L384.5,75.5C393,91.83 408.08,116.17 429.75,148.5C449.75,179 463.5,201.67 471,216.5C487.33,248.83 495.5,279 495.5,307C495.5,348.67 467.5,388.25 411.5,425.75C404.67,430.58 400.17,433 398,433L397.25,433C397.25,431.33 400.42,427.58 406.75,421.75C429.92,400.58 444.67,386.33 451,379C472.17,354.67 482.75,332.25 482.75,311.75C482.75,289.42 472.17,260.58 451,225.25C446.33,217.42 432.67,196.83 410,163.5C401.17,151 393.67,139.08 387.5,127.75C388.17,139.58 389.83,164.17 392.5,201.5C396.67,255.33 398.75,287.33 398.75,297.5C398.75,314.33 395.58,330.67 389.25,346.5C381.42,368.17 369,382.67 352,390C336.17,397 324.33,402.33 316.5,406C301.17,412.83 290.58,418.67 284.75,423.5C274.08,431.33 258.75,447.17 238.75,471C226.58,484.67 214.42,491.5 202.25,491.5C191.75,491.5 182.75,487 175.25,478C167.42,468 163.5,456.17 163.5,442.5C163.5,423.5 171.17,398.67 186.5,368C188.5,364.83 189.75,363.25 190.25,363.25C190.92,363.25 191.25,363.75 191.25,364.75C191.25,367.92 187.75,378.5 180.75,396.5C173.92,415 170.5,429.5 170.5,440C170.5,448 172.67,454.58 177,459.75C180.67,465.08 186.17,467.75 193.5,467.75C206.17,467.75 218.83,461.17 231.5,448C236.33,442.67 240.83,437.33 245,432C248.67,427.83 252.67,423.42 257,418.75C267.5,406.58 281.5,395.75 299,386.25C309,380.92 326.67,372.67 352,361.5C372.67,353.17 383,340.25 383,322.75C383,313.75 380.83,278.92 376.5,218.25C371.83,157.42 369.5,121.42 369.5,110.25C369.5,100.25 367.92,92.08 364.75,85.75C364.75,82.08 367.67,73.67 373.5,60.5C374,58.83 374.75,58 375.75,58C376.25,58 376.83,58.83 377.5,60.5Z" style="fill:rgb(0,162,181);"/>
            </g>
            <g id="path9" transform="matrix(0.999894,-0.0145578,0.0145578,0.999894,133.521,20.7879)">
                <path d="M402.5,389.5L402.25,389.5C402.25,389 403.58,387.33 406.25,384.5C419.08,370.5 425.5,361.17 425.5,356.5C425.33,352 423.25,349.75 419.25,349.75C416.92,349.75 414.96,350.29 413.38,351.38C411.79,352.46 410.83,353.08 410.5,353.25L409.5,352.75L410.25,349.25C412.25,339.58 417.08,334.75 424.75,334.75C430.92,334.75 434,338.67 434,346.5C434,352.33 431.58,359.04 426.75,366.63C421.92,374.21 415.67,380.75 408,386.25C404.83,388.42 403,389.5 402.5,389.5Z" style="fill:rgb(255,176,0);"/>
            </g>
            <g id="path10" transform="matrix(0.999894,-0.0145578,0.0145578,0.999894,133.521,20.7879)">
                <path d="M434.25,314.75C433.58,314.75 433.25,313.92 433.25,312.25C433.25,309.58 431.71,304.46 428.63,296.88C425.54,289.29 423.42,285.5 422.25,285.5C421.25,285.5 420.67,285.75 420.5,286.25C420.33,286.75 419.58,287 418.25,287C416.92,287 415.17,286 413,284C410.83,282 409.75,280.42 409.75,279.25C409.75,278.75 410.67,276.96 412.5,273.88C414.33,270.79 415.5,269.25 416,269.25C420.5,269.25 424.5,271.92 428,277.25C431.5,282.58 434,289.5 435.5,298C435.67,298.83 435.75,299.33 435.75,299.5L436,299.5L436.75,298C437.42,292.83 439.17,285.17 442,275C445,267.83 448.25,264.25 451.75,264.25C453.75,264.25 455.58,265.42 457.25,267.75C458.92,270.08 459.75,271.92 459.75,273.25C459.75,274.25 459.5,275.58 459,277.25C458.17,279.58 457.33,280.75 456.5,280.75C456,280.75 455.08,279.88 453.75,278.13C452.42,276.38 451,275.5 449.5,275.5C446.33,275.5 443.42,283 440.75,298C439.58,304.5 438.25,309.17 436.75,312C435.75,313.83 434.92,314.75 434.25,314.75Z" style="fill:rgb(255,176,0);"/>
            </g>
            <g id="path11" transform="matrix(0.999894,-0.0145578,0.0145578,0.999894,133.521,20.7879)">
                <path d="M228,170.75C229.67,166.58 232,162.08 235,157.25L242.5,155.5C261.17,151.33 281.25,146.75 302.75,141.75L305.25,141.5C305.75,141.5 306,141.67 306,142C306,142.5 305.67,143.25 305,144.25C302.67,148.42 300.92,150.92 299.75,151.75C279.25,156.25 255.33,162.58 228,170.75Z" style="fill:rgb(255,176,0);"/>
            </g>
            <g id="path12" transform="matrix(0.999894,-0.0145578,0.0145578,0.999894,133.521,20.7879)">
                <path d="M326.25,175.75C321.92,175.75 318.33,174.58 315.5,172.25C312.67,169.92 311.25,166.92 311.25,163.25C311.25,156.92 313.83,150.67 319,144.5C330,132.83 335.5,126.83 335.5,126.5C335.5,125.83 335,125.33 334,125C330,123.67 325.75,123 321.25,123C318.75,123 316.08,123.67 313.25,125L312.5,125.25C312.17,125.25 312,125.08 312,124.75L312.25,123.75C313.92,119.42 315.83,116.42 318,114.75C320.17,113.08 323.58,112.25 328.25,112.25C338.92,112.25 344.25,114.83 344.25,120C344.25,124 340.83,129.58 334,136.75C332.67,138.25 331.25,139.67 329.75,141L319.5,151.75C317.33,154.42 316.25,156.75 316.25,158.75C316.25,163.08 321.17,165.25 331,165.25C340.17,165.25 350,163.67 360.5,160.5C362.33,160 363.58,159.75 364.25,159.75C364.58,159.75 364.75,159.83 364.75,160C364.75,160.33 363.67,161.42 361.5,163.25C352.33,171.58 340.58,175.75 326.25,175.75Z" style="fill:rgb(255,176,0);"/>
            </g>
            <g id="path13" transform="matrix(0.999894,-0.0145578,0.0145578,0.999894,133.521,20.7879)">
                <path d="M47,277.5C46.83,277.5 46.75,277.08 46.75,276.25C46.75,274.58 47.17,271.33 48,266.5C50.17,254.67 51.38,238.38 51.63,217.63C51.88,196.88 52.25,185.33 52.75,183C54.25,174.67 57.67,169 63,166C65.67,164.67 70.25,163.67 76.75,163C74.42,159.5 72.17,157.75 70,157.75C68.83,157.75 67.04,158.83 64.63,161C62.21,163.17 60.83,164.25 60.5,164.25C60.33,164.08 60.25,163.75 60.25,163.25L60.5,160.75C63.67,150.25 67.83,144.42 73,143.25C72.67,136.75 71.67,128.75 70,119.25C68,108.58 66.33,103.17 65,103L64.25,103C63.58,103 63.08,103.21 62.75,103.63C62.42,104.04 61.75,104.25 60.75,104.25C58.58,104.25 56.33,102.67 54,99.5C51.67,96.33 50.5,94 50.5,92.5C50.5,91.83 52.04,89.75 55.13,86.25C58.21,82.75 60.08,81 60.75,81C66.58,82 71.08,86.33 74.25,94C77.25,100.83 78.75,109.17 78.75,119L78.75,124L79,124.25C79.17,124.25 79.67,123.67 80.5,122.5L80.5,122.25C82.5,115.92 86.5,106.67 92.5,94.5C97.5,86.83 102.17,83 106.5,83C109.33,83 111.75,85 113.75,89C114.92,91.67 115.5,93.75 115.5,95.25C115.5,96.92 114.83,98.96 113.5,101.38C112.17,103.79 110.92,105 109.75,105C109.25,105 108.29,103.63 106.88,100.88C105.46,98.13 103.67,96.75 101.5,96.75C97.67,96.75 92.33,105.67 85.5,123.5C81.83,133.67 78.83,140.25 76.5,143.25C79.67,144.25 83.46,147.29 87.88,152.38C92.29,157.46 94.5,161.58 94.5,164.75C94.5,165.75 93.42,167.79 91.25,170.88C89.08,173.96 87.67,175.58 87,175.75L71.5,177C64.83,177.83 60.08,179.42 57.25,181.75C57.92,186.58 58.25,193.5 58.25,202.5C58.25,223.5 56.92,241.25 54.25,255.75C53.08,262.08 51.25,268.25 48.75,274.25C47.92,276.25 47.33,277.33 47,277.5Z" style="fill:rgb(255,176,0);"/>
            </g>
            <g id="path14" transform="matrix(0.999894,-0.0145578,0.0145578,0.999894,133.521,20.7879)">
                <path d="M109.75,472.5C108.92,472.5 108.5,471.42 108.5,469.25C108.5,465.75 106.54,459.08 102.63,449.25C98.71,439.42 95.92,434.5 94.25,434.5C93.08,434.5 92.33,434.88 92,435.63C91.67,436.38 90.75,436.75 89.25,436.75C87.58,436.75 85.33,435.46 82.5,432.88C79.67,430.29 78.25,428.17 78.25,426.5C78.25,425.83 79.42,423.54 81.75,419.63C84.08,415.71 85.58,413.75 86.25,413.75C91.92,413.75 97.08,417.17 101.75,424C106.42,430.83 109.67,439.75 111.5,450.75L111.5,451.5L112,453C112.17,453 112.5,452.25 113,450.75C113.83,444.08 116.08,434.25 119.75,421.25C123.75,411.92 128,407.25 132.5,407.25C135,407.25 137.33,408.71 139.5,411.63C141.67,414.54 142.75,416.92 142.75,418.75C142.75,420.08 142.42,421.83 141.75,424C140.92,427 139.83,428.5 138.5,428.5C138,428.5 136.88,427.38 135.13,425.13C133.38,422.88 131.58,421.75 129.75,421.75C125.58,421.75 121.75,431.5 118.25,451C116.75,459.5 115,465.5 113,469C111.67,471.33 110.58,472.5 109.75,472.5Z" style="fill:rgb(255,176,0);"/>
            </g>
            <g id="path15" transform="matrix(0.999894,-0.0145578,0.0145578,0.999894,133.521,20.7879)">
                <path d="M9,242.75L8.5,242.75C2.83,242.75 0,239.08 0,231.75C0,226.58 2,220.54 6,213.63C10,206.71 15.42,200.67 22.25,195.5C24.92,193.33 26.5,192.25 27,192.25C27,192.92 25.92,194.5 23.75,197C12.92,210 7.5,218.58 7.5,222.75C7.5,226.75 9.33,228.75 13,228.75C16,228.75 18.67,227.58 21,225.25C21.33,225.58 21.67,225.75 22,225.75C21.83,226.25 21.67,227.33 21.5,229C20,237.83 15.83,242.42 9,242.75Z" style="fill:rgb(255,176,0);"/>
            </g>
            <g id="path16" transform="matrix(0.999894,-0.0145578,0.0145578,0.999894,133.521,20.7879)">
                <path d="M273,469.5L270,469.5C268.33,469.5 267.33,469.42 267,469.25L267,469C267.33,468.67 269.17,468.08 272.5,467.25C289.17,463.25 298.67,459.5 301,456C302,454.67 302.5,453.33 302.5,452C302.5,450.5 301.63,449.17 299.88,448C298.13,446.83 296.38,446.25 294.63,446.25C292.88,446.25 291.92,446.17 291.75,446C291.58,445.83 291.42,445.58 291.25,445.25C291.58,445.08 292.33,444.33 293.5,443C297.33,439.17 301.08,437.25 304.75,437.25C307.08,437.25 309.42,438.04 311.75,439.63C314.08,441.21 315.25,443.33 315.25,446C315.25,448 314.42,450.33 312.75,453C309.75,457.33 304.5,461.13 297,464.38C289.5,467.63 281.5,469.33 273,469.5Z" style="fill:rgb(255,176,0);"/>
            </g>
            <g id="path17" transform="matrix(0.999894,-0.0145578,0.0145578,0.999894,133.521,20.7879)">
                <path d="M418.5,244C414.5,244 411.42,240.33 409.25,233C407.42,227.17 406.5,220.83 406.5,214C406.5,208.67 407.08,203 408.25,197C408.92,193.67 409.42,191.92 409.75,191.75L410,191.75L410,203.75C410,223.25 412.92,233 418.75,233C421.58,233 423.67,229.67 425,223C425,222 425.17,221.5 425.5,221.5C425.83,221.5 426,222 426,223C426.33,225.67 426.5,228.08 426.5,230.25C426.5,239.42 423.83,244 418.5,244Z" style="fill:rgb(255,176,0);"/>
            </g>
            <g id="path18" transform="matrix(0.999894,-0.0145578,0.0145578,0.999894,133.521,20.7879)">
                <path d="M245.75,238.75C248.08,235.08 251.25,231.17 255.25,227L326.25,225.75C327.25,225.75 327.75,225.92 327.75,226.25C327.75,226.75 327.33,227.5 326.5,228.5C323.33,232.17 321.08,234.25 319.75,234.75C298.75,235.08 274.08,236.42 245.75,238.75Z" style="fill:rgb(255,176,0);"/>
            </g>
            <g id="path19" transform="matrix(0.999894,-0.0145578,0.0145578,0.999894,133.521,20.7879)">
                <path d="M60,406.75C61,402.58 62.75,397.92 65.25,392.75L156.5,359.5C157.67,359 158.5,358.75 159,358.75C159.5,358.75 159.75,359 159.75,359.5L159,361.5C157.17,366 155.67,368.75 154.5,369.75C127.5,379.42 96,391.75 60,406.75Z" style="fill:rgb(255,176,0);"/>
            </g>
            <g id="path20" transform="matrix(0.999894,-0.0145578,0.0145578,0.999894,133.521,20.7879)">
                <path d="M101.75,290C101.42,290 101.25,289.58 101.25,288.75C101.25,287.75 101.5,286.25 102,284.25C103.83,276.92 104.75,270.67 104.75,265.5C104.75,246.17 96.42,229.25 79.75,214.75C79.25,214.25 79,213.67 79,213C79,212.5 79.88,210.63 81.63,207.38C83.38,204.13 84.42,202.5 84.75,202.5C85.08,202.5 85.5,202.75 86,203.25C102.33,215.58 110.5,233.25 110.5,256.25C110.5,267.92 108.67,277.58 105,285.25C103.5,288.42 102.42,290 101.75,290Z" style="fill:rgb(255,176,0);"/>
            </g>
            <g id="path2" transform="matrix(0.999894,-0.0145578,0.0145578,0.999894,-3.78653,5.63001)">
                <path d="M392.072,55.655C386.242,55.655 383.322,52.825 383.322,47.155C383.322,42.985 385.612,36.945 390.202,29.035C394.782,21.115 398.742,17.155 402.072,17.155C404.902,17.155 407.402,18.405 409.572,20.905C411.742,23.405 412.822,26.575 412.822,30.405C412.822,36.235 410.782,41.905 406.702,47.405C402.612,52.905 397.742,55.655 392.072,55.655ZM396.072,43.905C403.902,43.905 407.822,41.575 407.822,36.905C407.652,31.575 403.992,28.905 396.822,28.905C395.652,28.905 393.862,30.575 391.452,33.905C389.032,37.235 387.822,39.655 387.822,41.155C388.652,42.985 391.402,43.905 396.072,43.905Z" style="fill:rgb(255,176,0);"/>
            </g>
            <g id="path22" transform="matrix(0.999894,-0.0145578,0.0145578,0.999894,133.521,20.7879)">
                <path d="M281.5,299.25C278.67,299.25 276.17,297.75 274,294.75C271.83,291.75 270.75,287.58 270.75,282.25L270.75,269.5C270.75,268.5 270.04,267.79 268.63,267.38C267.21,266.96 266.5,265.83 266.5,264C266.5,261.17 267.63,258.5 269.88,256C272.13,253.5 273.83,252.25 275,252.25C276.5,252.25 277.25,255 277.25,260.5C277.25,263.5 277,265.96 276.5,267.88C276,269.79 275.75,271.5 275.75,273C275.75,276 276.42,279 277.75,282C279.08,285 280.83,286.5 283,286.5C285.83,286.5 288.46,285.25 290.88,282.75C293.29,280.25 294.5,277.25 294.5,273.75C294.5,271.92 293.92,268.58 292.75,263.75C291.58,258.92 291,256 291,255C291,253.83 291.5,252.17 292.5,250C293.5,247.83 294.33,246.75 295,246.75C295.83,246.75 297,249.88 298.5,256.13C300,262.38 300.75,267 300.75,270C300.75,278.67 304.08,283 310.75,283C313.75,283 315.58,281.58 316.25,278.75C310.42,268.58 307.5,260.83 307.5,255.5C307.5,252.33 308.33,249.58 310,247.25C311,245.58 311.67,244.75 312,244.75C312.5,244.75 312.83,245.75 313,247.75C313.33,250.58 313.83,253 314.5,255L318.5,265.5C320.17,269.67 321,272.83 321,275C321,279 320.17,283.17 318.5,287.5C316.17,293.17 313.08,296 309.25,296C303.42,296 299.25,291.92 296.75,283.75C293.92,294.08 288.83,299.25 281.5,299.25Z" style="fill:rgb(255,176,0);"/>
            </g>
            <g id="path23" transform="matrix(0.999894,-0.0145578,0.0145578,0.999894,133.521,20.7879)">
                <path d="M60.75,326.75L60,326.5C52.17,320.5 44.17,314.92 36,309.75L35.75,309.25C35.75,308.92 39.08,301.75 45.75,287.75C46.42,286.42 47.08,285.75 47.75,285.75C48.75,285.75 53.21,288.46 61.13,293.88C69.04,299.29 73,302.42 73,303.25C73,306.75 69.5,314.08 62.5,325.25C62,326.25 61.42,326.75 60.75,326.75Z" style="fill:rgb(255,176,0);"/>
            </g>
            <g id="path0" transform="matrix(0.999894,-0.0145578,0.0145578,0.999894,-3.78653,5.63001)">
                <path d="M317.822,257.405C317.822,232.075 330.242,214.155 355.072,203.655C371.572,198.325 391.402,195.655 414.572,195.655C472.742,196.155 501.822,217.825 501.822,260.655C501.822,294.485 487.822,324.575 459.822,350.905C432.322,376.905 401.652,389.905 367.822,389.905C344.652,389.905 325.402,383.825 310.072,371.655C297.402,362.155 288.402,348.905 283.072,331.905C262.902,352.575 246.492,367.405 233.822,376.405C211.152,393.235 191.402,401.655 174.572,401.655C151.742,401.655 140.322,383.155 140.322,346.155C140.322,326.655 147.992,301.825 163.322,271.655C164.992,268.485 166.322,266.905 167.322,266.905C167.822,266.905 168.072,267.235 168.072,267.905C168.072,271.075 164.652,281.905 157.822,300.405C150.992,318.235 147.572,332.735 147.572,343.905C147.572,351.235 150.242,357.575 155.572,362.905C160.742,368.235 167.572,370.905 176.072,370.905C190.902,370.905 208.322,363.485 228.322,348.655C239.992,339.655 256.652,325.405 278.322,305.905C277.822,300.575 277.572,295.235 277.572,289.905C277.572,258.235 283.402,231.575 295.072,209.905C301.402,197.735 312.742,182.655 329.072,164.655C322.242,158.325 311.902,149.905 298.072,139.405C288.572,132.075 281.992,125.485 278.322,119.655C276.152,115.985 275.072,111.485 275.072,106.155C275.072,97.155 278.492,89.235 285.322,82.405C294.322,74.405 306.742,70.405 322.572,70.405C340.572,70.405 369.902,71.985 410.572,75.155C447.072,77.825 469.572,79.985 478.072,81.655C481.742,82.155 483.072,83.735 482.072,86.405L475.572,106.155C474.572,109.325 472.742,111.405 470.072,112.405C422.572,132.575 383.492,151.575 352.822,169.405C352.822,181.075 351.742,186.905 349.572,186.905C348.072,186.905 345.492,183.485 341.822,176.655C328.492,187.825 316.822,200.985 306.822,216.155C293.652,236.325 287.072,255.155 287.072,272.655C287.072,280.985 287.572,288.575 288.572,295.405L320.322,270.905C318.652,265.735 317.822,261.235 317.822,257.405ZM296.572,320.155L296.322,319.905C308.652,345.905 334.072,358.905 372.572,358.905C391.072,358.905 410.402,353.905 430.572,343.905C447.902,334.905 462.652,323.575 474.822,309.905C486.992,297.075 493.072,285.655 493.072,275.655C493.072,259.325 486.992,246.905 474.822,238.405C461.652,229.405 440.822,224.905 412.322,224.905C388.992,224.905 369.902,227.075 355.072,231.405C348.242,234.575 341.902,237.985 336.072,241.655C330.242,245.325 327.322,247.655 327.322,248.655C327.322,251.825 328.902,256.655 332.072,263.155C345.902,258.325 356.492,255.905 363.822,255.905C372.822,255.905 379.992,259.575 385.322,266.905C389.992,274.405 392.322,284.235 392.322,296.405C392.322,306.405 390.242,314.575 386.072,320.905C381.902,327.235 376.072,330.405 368.572,330.405C359.572,330.405 350.652,326.155 341.822,317.655C336.492,312.485 331.992,306.325 328.322,299.155C313.322,307.985 302.742,314.985 296.572,320.155ZM370.322,299.655C374.492,299.655 376.572,298.575 376.572,296.405C376.572,293.235 373.742,290.485 368.072,288.155C365.742,287.155 362.992,286.655 359.822,286.655C356.322,286.655 352.242,287.235 347.572,288.405C352.402,295.905 359.992,299.655 370.322,299.655ZM346.572,151.155C373.742,132.655 399.902,118.325 425.072,108.155C427.572,107.155 428.822,106.485 428.822,106.155C428.822,105.825 426.742,105.325 422.572,104.655C394.742,100.825 362.742,98.905 326.572,98.905C301.742,98.905 289.322,100.155 289.322,102.655C289.322,103.325 290.742,104.825 293.572,107.155L319.072,127.155C334.072,139.155 343.242,147.155 346.572,151.155Z" style="fill:rgb(0,162,181);"/>
            </g>
        </g>
    </g>
</svg>
